<?xml version="1.0" standalone="yes"?>
<svg xmlns="http://www.w3.org/2000/svg" width="192" height="192">
<path style="fill:#050505; stroke:none;" d="M0 0L0 192L192 192L192 0L0 0z"/>
<path style="fill:#303030; stroke:none;" d="M10 77L11 77C13.2368 66.1919 17.9976 55.9541 24.4282 47C64.913 -9.37198 152.688 0.757721 178 66C179.03 60.1217 173.613 52.7881 170.564 48C159.906 31.2617 143.687 18.8036 125 12.3441C78.0602 -3.88193 17.0333 24.8121 10 77M90 44L91 45L90 44M101 44L102 45L101 44M85 45L86 46L85 45z"/>
<path style="fill:#646464; stroke:none;" d="M86 45L87 46L86 45z"/>
<path style="fill:#a1a1a1; stroke:none;" d="M87 45L87 46L90 46L87 45z"/>
<path style="fill:#f1f1f1; stroke:none;" d="M90 45L77.0278 49.652L76 64L76 101L89.9722 92.4823L91 80L90 45M101 45L102.028 62.6744L115 71.4244L146 89C144.895 63.6514 122.713 50.6176 101 45z"/>
<path style="fill:#a1a1a1; stroke:none;" d="M102 45L102 46L105 46L102 45z"/>
<path style="fill:#646464; stroke:none;" d="M105 45L106 46L105 45z"/>
<path style="fill:#303030; stroke:none;" d="M106 45L107 46L106 45M81 46L82 47L81 46z"/>
<path style="fill:#646464; stroke:none;" d="M82 46L83 47L82 46z"/>
<path style="fill:#a1a1a1; stroke:none;" d="M83 46L84 47L83 46M107.667 46.3333L108.333 46.6667L107.667 46.3333z"/>
<path style="fill:#646464; stroke:none;" d="M109 46L110 47L109 46z"/>
<path style="fill:#303030; stroke:none;" d="M110 46L111 47L110 46M78 47L79 48L78 47z"/>
<path style="fill:#646464; stroke:none;" d="M79 47L80 48L79 47M112 47L113 48L112 47z"/>
<path style="fill:#303030; stroke:none;" d="M75 48L76 49L75 48z"/>
<path style="fill:#646464; stroke:none;" d="M76 48L77 49L76 48z"/>
<path style="fill:#a1a1a1; stroke:none;" d="M77 48L78 49L77 48M114 48L115 49L114 48z"/>
<path style="fill:#646464; stroke:none;" d="M115 48L116 49L115 48z"/>
<path style="fill:#303030; stroke:none;" d="M116 48L117 49L116 48z"/>
<path style="fill:#646464; stroke:none;" d="M75 49L75 88L77 102L75 49M117 49L118 50L117 49z"/>
<path style="fill:#a1a1a1; stroke:none;" d="M118 50L119 51L118 50z"/>
<path style="fill:#646464; stroke:none;" d="M119 50L120 51L119 50z"/>
<path style="fill:#303030; stroke:none;" d="M120 50L121 51L120 50z"/>
<path style="fill:#646464; stroke:none;" d="M121 51L122 52L121 51z"/>
<path style="fill:#a1a1a1; stroke:none;" d="M122 52L123 53L122 52z"/>
<path style="fill:#303030; stroke:none;" d="M123 52L124 53L123 52z"/>
<path style="fill:#646464; stroke:none;" d="M124 53L125 54L124 53z"/>
<path style="fill:#a1a1a1; stroke:none;" d="M125 54L126 55L125 54z"/>
<path style="fill:#646464; stroke:none;" d="M64 55L65 56L64 55M127 55L128 56L127 55z"/>
<path style="fill:#a1a1a1; stroke:none;" d="M63 56L59 61L63 56z"/>
<path style="fill:#f1f1f1; stroke:none;" d="M64 56C45.4575 74.1204 42.4813 92.6157 49 117C53.4062 114.94 61.2992 111.82 63.9722 107.61C66.1601 104.165 65 97.9097 65 94C65 83.104 68.2077 66.0275 64 56z"/>
<path style="fill:#646464; stroke:none;" d="M128 56L129 57L128 56z"/>
<path style="fill:#303030; stroke:none;" d="M61 57L62 58L61 57z"/>
<path style="fill:#a1a1a1; stroke:none;" d="M129 57L130 58L129 57z"/>
<path style="fill:#303030; stroke:none;" d="M60 58L61 59L60 58z"/>
<path style="fill:#a1a1a1; stroke:none;" d="M130 58L131 59L130 58z"/>
<path style="fill:#303030; stroke:none;" d="M59 59L60 60L59 59z"/>
<path style="fill:#a1a1a1; stroke:none;" d="M131 59L133 61L131 59z"/>
<path style="fill:#303030; stroke:none;" d="M132 59L133 60L132 59M58 60L59 61L58 60M57 61L55 64L57 61z"/>
<path style="fill:#a1a1a1; stroke:none;" d="M133 61L134 62L133 61M57 62L58 63L57 62M134 62L135 63L134 62M56 63L57 64L56 63M101 63L102 64L101 63M135 63L136 64L135 63M55 64L56 65L55 64z"/>
<path style="fill:#646464; stroke:none;" d="M102 64L103 65L102 64z"/>
<path style="fill:#a1a1a1; stroke:none;" d="M103 64L104 65L103 64z"/>
<path style="fill:#646464; stroke:none;" d="M136 64L137 65L136 64M54 65L55 66L54 65M104 65L105 66L104 65z"/>
<path style="fill:#303030; stroke:none;" d="M137 65L138 66L137 65M53 66L54 67L53 66M105 66L106 67L105 66z"/>
<path style="fill:#a1a1a1; stroke:none;" d="M106 66L107 67L106 66M137 66L138 67L137 66M53 67L54 68L53 67z"/>
<path style="fill:#303030; stroke:none;" d="M107 67L108 68L107 67z"/>
<path style="fill:#a1a1a1; stroke:none;" d="M138 67L139 68L138 67z"/>
<path style="fill:#303030; stroke:none;" d="M179.333 67.6667L179.667 68.3333L179.333 67.6667z"/>
<path style="fill:#a1a1a1; stroke:none;" d="M52 68L53 69L52 68z"/>
<path style="fill:#646464; stroke:none;" d="M109 68L110 69L109 68M139 68L140 69L139 68z"/>
<path style="fill:#303030; stroke:none;" d="M51 69L52 70L51 69z"/>
<path style="fill:#a1a1a1; stroke:none;" d="M111 69L112 70L111 69M139 69L140 70L139 69M51 70L52 71L51 70z"/>
<path style="fill:#303030; stroke:none;" d="M112 70L113 71L112 70z"/>
<path style="fill:#a1a1a1; stroke:none;" d="M113 70L114 71L113 70z"/>
<path style="fill:#646464; stroke:none;" d="M140 70L141 71L140 70z"/>
<path style="fill:#303030; stroke:none;" d="M180.333 70.6667L180.667 71.3333L180.333 70.6667z"/>
<path style="fill:#646464; stroke:none;" d="M50 71L51 72L50 71M114 71L115 72L114 71z"/>
<path style="fill:#a1a1a1; stroke:none;" d="M115 71L116 72L115 71z"/>
<path style="fill:#303030; stroke:none;" d="M141 71L142 72L141 71z"/>
<path style="fill:#a1a1a1; stroke:none;" d="M50 72L51 73L50 72z"/>
<path style="fill:#646464; stroke:none;" d="M116 72L117 73L116 72z"/>
<path style="fill:#a1a1a1; stroke:none;" d="M141 72L142 73L141 72z"/>
<path style="fill:#646464; stroke:none;" d="M49 73L50 74L49 73z"/>
<path style="fill:#303030; stroke:none;" d="M117 73L118 74L117 73z"/>
<path style="fill:#a1a1a1; stroke:none;" d="M118 73L119 74L118 73z"/>
<path style="fill:#303030; stroke:none;" d="M142 73L143 74L142 73z"/>
<path style="fill:#a1a1a1; stroke:none;" d="M120 74L121 75L120 74M142 74L143 75L142 74z"/>
<path style="fill:#303030; stroke:none;" d="M181.333 74.6667L181.667 75.3333L181.333 74.6667z"/>
<path style="fill:#646464; stroke:none;" d="M48 75L49 76L48 75M101 75L102 76L101 75M121 75L122 76L121 75z"/>
<path style="fill:#a1a1a1; stroke:none;" d="M122 75L123 76L122 75z"/>
<path style="fill:#303030; stroke:none;" d="M143 75L144 76L143 75z"/>
<path style="fill:#a1a1a1; stroke:none;" d="M48 76L49 77L48 76z"/>
<path style="fill:#f1f1f1; stroke:none;" d="M101 76L102.028 92.4715L114 100.421L143 116L147 102L101 76z"/>
<path style="fill:#a1a1a1; stroke:none;" d="M102 76L103 77L102 76z"/>
<path style="fill:#303030; stroke:none;" d="M103 76L104 77L103 76z"/>
<path style="fill:#646464; stroke:none;" d="M123 76L124 77L123 76M143 76L144 77L143 76z"/>
<path style="fill:#a1a1a1; stroke:none;" d="M104 77L105 78L104 77z"/>
<path style="fill:#303030; stroke:none;" d="M105 77L106 78L105 77M124 77L125 78L124 77z"/>
<path style="fill:#646464; stroke:none;" d="M125 77L126 78L125 77z"/>
<path style="fill:#a1a1a1; stroke:none;" d="M143 77L144 78L143 77z"/>
<path style="fill:#303030; stroke:none;" d="M9 78L9 82L10 82L9 78z"/>
<path style="fill:#646464; stroke:none;" d="M47 78L48 79L47 78M106 78L107 79L106 78z"/>
<path style="fill:#303030; stroke:none;" d="M107 78L108 79L107 78M126 78L127 79L126 78z"/>
<path style="fill:#a1a1a1; stroke:none;" d="M127 78L128 79L127 78z"/>
<path style="fill:#303030; stroke:none;" d="M144 78L145 79L144 78M182.333 78.6667L182.667 79.3333L182.333 78.6667z"/>
<path style="fill:#646464; stroke:none;" d="M108 79L109 80L108 79z"/>
<path style="fill:#303030; stroke:none;" d="M128 79L129 80L128 79z"/>
<path style="fill:#a1a1a1; stroke:none;" d="M129 79L130 80L129 79M144 79L145 80L144 79z"/>
<path style="fill:#303030; stroke:none;" d="M46 80L47 81L46 80z"/>
<path style="fill:#a1a1a1; stroke:none;" d="M109 80L110 81L109 80z"/>
<path style="fill:#303030; stroke:none;" d="M110 80L111 81L110 80z"/>
<path style="fill:#646464; stroke:none;" d="M130 80L131 81L130 80z"/>
<path style="fill:#303030; stroke:none;" d="M145.333 80.6667L145.667 81.3333L145.333 80.6667z"/>
<path style="fill:#646464; stroke:none;" d="M46 81L47 82L46 81z"/>
<path style="fill:#a1a1a1; stroke:none;" d="M111 81L112 82L111 81z"/>
<path style="fill:#303030; stroke:none;" d="M112 81L113 82L112 81z"/>
<path style="fill:#a1a1a1; stroke:none;" d="M132 81L133 82L132 81M46.3333 82.6667L46.6667 83.3333L46.3333 82.6667z"/>
<path style="fill:#646464; stroke:none;" d="M113 82L114 83L113 82z"/>
<path style="fill:#303030; stroke:none;" d="M114 82L115 83L114 82M133 82L134 83L133 82z"/>
<path style="fill:#a1a1a1; stroke:none;" d="M134 82L135 83L134 82z"/>
<path style="fill:#646464; stroke:none;" d="M145 82L146 83L145 82z"/>
<path style="fill:#303030; stroke:none;" d="M8 83L8 90L9 90L8 83M115 83L116 84L115 83M135 83L136 84L135 83z"/>
<path style="fill:#a1a1a1; stroke:none;" d="M145 83L146 84L145 83z"/>
<path style="fill:#303030; stroke:none;" d="M45 84L46 85L45 84z"/>
<path style="fill:#a1a1a1; stroke:none;" d="M116 84L117 85L116 84z"/>
<path style="fill:#303030; stroke:none;" d="M117 84L118 85L117 84M136 84L137 85L136 84z"/>
<path style="fill:#646464; stroke:none;" d="M137 84L138 85L137 84z"/>
<path style="fill:#303030; stroke:none;" d="M183 84L183 87L184 87L183 84z"/>
<path style="fill:#646464; stroke:none;" d="M45.3333 85.6667L45.6667 86.3333L45.3333 85.6667z"/>
<path style="fill:#a1a1a1; stroke:none;" d="M118 85L119 86L118 85z"/>
<path style="fill:#303030; stroke:none;" d="M119 85L120 86L119 85M138 85L139 86L138 85z"/>
<path style="fill:#a1a1a1; stroke:none;" d="M139 85L140 86L139 85z"/>
<path style="fill:#303030; stroke:none;" d="M146 85L147 86L146 85z"/>
<path style="fill:#646464; stroke:none;" d="M120 86L121 87L120 86z"/>
<path style="fill:#303030; stroke:none;" d="M140 86L141 87L140 86z"/>
<path style="fill:#a1a1a1; stroke:none;" d="M141 86L142 87L141 86z"/>
<path style="fill:#646464; stroke:none;" d="M146 86L147 87L146 86z"/>
<path style="fill:#a1a1a1; stroke:none;" d="M45 87L45 90L46 90L45 87M121 87L122 88L121 87z"/>
<path style="fill:#646464; stroke:none;" d="M122 87L123 88L122 87M142 87L143 88L142 87z"/>
<path style="fill:#a1a1a1; stroke:none;" d="M143 87L144 88L143 87M146 87L146 90L147 90L146 87M123 88L124 89L123 88z"/>
<path style="fill:#303030; stroke:none;" d="M124 88L125 89L124 88z"/>
<path style="fill:#646464; stroke:none;" d="M144 88L145 89L144 88z"/>
<path style="fill:#303030; stroke:none;" d="M44 89L44 102L45 102L44 89z"/>
<path style="fill:#a1a1a1; stroke:none;" d="M125 89L126 90L125 89z"/>
<path style="fill:#303030; stroke:none;" d="M126 89L127 90L126 89M145 89L146 90L145 89z"/>
<path style="fill:#646464; stroke:none;" d="M127 90L128 91L127 90z"/>
<path style="fill:#a1a1a1; stroke:none;" d="M128 91L129 92L128 91z"/>
<path style="fill:#646464; stroke:none;" d="M129 91L130 92L129 91z"/>
<path style="fill:#a1a1a1; stroke:none;" d="M130 92L131 93L130 92z"/>
<path style="fill:#303030; stroke:none;" d="M131 92L132 93L131 92z"/>
<path style="fill:#a1a1a1; stroke:none;" d="M89 93L90 94L89 93z"/>
<path style="fill:#646464; stroke:none;" d="M90 93L91 94L90 93M101 93L102 94L101 93z"/>
<path style="fill:#a1a1a1; stroke:none;" d="M102 93L103 94L102 93M132 93L133 94L132 93z"/>
<path style="fill:#303030; stroke:none;" d="M133 93L134 94L133 93z"/>
<path style="fill:#a1a1a1; stroke:none;" d="M88 94L89 95L88 94M103 94L104 95L103 94z"/>
<path style="fill:#646464; stroke:none;" d="M134 94L135 95L134 94z"/>
<path style="fill:#a1a1a1; stroke:none;" d="M86 95L87 96L86 95z"/>
<path style="fill:#303030; stroke:none;" d="M87 95L88 96L87 95M104 95L105 96L104 95z"/>
<path style="fill:#a1a1a1; stroke:none;" d="M105 95L106 96L105 95M135 95L136 96L135 95z"/>
<path style="fill:#646464; stroke:none;" d="M136 95L137 96L136 95M85 96L86 97L85 96M106 96L107 97L106 96z"/>
<path style="fill:#a1a1a1; stroke:none;" d="M107 96L108 97L107 96M137 96L138 97L137 96z"/>
<path style="fill:#303030; stroke:none;" d="M138 96L139 97L138 96z"/>
<path style="fill:#646464; stroke:none;" d="M83 97L84 98L83 97M108 97L109 98L108 97z"/>
<path style="fill:#a1a1a1; stroke:none;" d="M139 97L140 98L139 97M81 98L82 99L81 98z"/>
<path style="fill:#303030; stroke:none;" d="M82 98L83 99L82 98M109 98L110 99L109 98z"/>
<path style="fill:#a1a1a1; stroke:none;" d="M110 98L111 99L110 98z"/>
<path style="fill:#646464; stroke:none;" d="M141 98L142 99L141 98z"/>
<path style="fill:#a1a1a1; stroke:none;" d="M79 99L80 100L79 99z"/>
<path style="fill:#303030; stroke:none;" d="M80 99L81 100L80 99M111 99L112 100L111 99z"/>
<path style="fill:#a1a1a1; stroke:none;" d="M112 99L113 100L112 99z"/>
<path style="fill:#303030; stroke:none;" d="M143 99L144 100L143 99z"/>
<path style="fill:#646464; stroke:none;" d="M78 100L79 101L78 100M113 100L114 101L113 100z"/>
<path style="fill:#a1a1a1; stroke:none;" d="M114 100L115 101L114 100M144 100L145 101L144 100z"/>
<path style="fill:#303030; stroke:none;" d="M145 100L146 101L145 100z"/>
<path style="fill:#646464; stroke:none;" d="M115 101L116 102L115 101z"/>
<path style="fill:#a1a1a1; stroke:none;" d="M146 101L147 102L146 101z"/>
<path style="fill:#303030; stroke:none;" d="M94 102L95 103L94 102z"/>
<path style="fill:#a1a1a1; stroke:none;" d="M95.6667 102.333L96.3333 102.667L95.6667 102.333z"/>
<path style="fill:#303030; stroke:none;" d="M97 102L98 103L97 102M116 102L117 103L116 102z"/>
<path style="fill:#646464; stroke:none;" d="M117 102L118 103L117 102z"/>
<path style="fill:#a1a1a1; stroke:none;" d="M45.3333 103.667L45.6667 104.333L45.3333 103.667z"/>
<path style="fill:#303030; stroke:none;" d="M92 103L93 104L92 103z"/>
<path style="fill:#a1a1a1; stroke:none;" d="M93 103L94 104L93 103z"/>
<path style="fill:#f1f1f1; stroke:none;" d="M55 126L55 127L65.0008 135.644L78 129.999L110 112L110 110L96 103.438L83 109.573L55 126z"/>
<path style="fill:#a1a1a1; stroke:none;" d="M98 103L99 104L98 103z"/>
<path style="fill:#303030; stroke:none;" d="M99 103L100 104L99 103M118 103L119 104L118 103z"/>
<path style="fill:#a1a1a1; stroke:none;" d="M119 103L120 104L119 103z"/>
<path style="fill:#646464; stroke:none;" d="M91 104L92 105L91 104M100 104L101 105L100 104z"/>
<path style="fill:#303030; stroke:none;" d="M120 104L121 105L120 104z"/>
<path style="fill:#a1a1a1; stroke:none;" d="M121 104L122 105L121 104M146 104L147 105L146 104z"/>
<path style="fill:#646464; stroke:none;" d="M45 105L46 106L45 105M89 105L90 106L89 105z"/>
<path style="fill:#a1a1a1; stroke:none;" d="M101 105L102 106L101 105z"/>
<path style="fill:#303030; stroke:none;" d="M102 105L103 106L102 105z"/>
<path style="fill:#646464; stroke:none;" d="M122 105L123 106L122 105M146 105L147 106L146 105z"/>
<path style="fill:#303030; stroke:none;" d="M45 106L46 107L45 106M87 106L88 107L87 106z"/>
<path style="fill:#a1a1a1; stroke:none;" d="M88 106L89 107L88 106M103 106L104 107L103 106z"/>
<path style="fill:#303030; stroke:none;" d="M104 106L105 107L104 106z"/>
<path style="fill:#646464; stroke:none;" d="M124 106L125 107L124 106z"/>
<path style="fill:#303030; stroke:none;" d="M146 106L147 107L146 106M85 107L86 108L85 107z"/>
<path style="fill:#a1a1a1; stroke:none;" d="M86 107L87 108L86 107z"/>
<path style="fill:#646464; stroke:none;" d="M105 107L106 108L105 107z"/>
<path style="fill:#303030; stroke:none;" d="M106 107L107 108L106 107M125 107L126 108L125 107z"/>
<path style="fill:#a1a1a1; stroke:none;" d="M126 107L127 108L126 107M46 108L47 109L46 108z"/>
<path style="fill:#303030; stroke:none;" d="M64 108L65 109L64 108z"/>
<path style="fill:#646464; stroke:none;" d="M84 108L85 109L84 108M107 108L108 109L107 108z"/>
<path style="fill:#303030; stroke:none;" d="M127 108L128 109L127 108z"/>
<path style="fill:#a1a1a1; stroke:none;" d="M145 108L146 109L145 108z"/>
<path style="fill:#646464; stroke:none;" d="M46 109L47 110L46 109M62 109L63 110L62 109M82 109L83 110L82 109z"/>
<path style="fill:#a1a1a1; stroke:none;" d="M83 109L84 110L83 109M108 109L109 110L108 109z"/>
<path style="fill:#303030; stroke:none;" d="M109 109L110 110L109 109z"/>
<path style="fill:#646464; stroke:none;" d="M129 109L130 110L129 109M145 109L146 110L145 109z"/>
<path style="fill:#303030; stroke:none;" d="M46 110L47 111L46 110z"/>
<path style="fill:#a1a1a1; stroke:none;" d="M60 110L61 111L60 110z"/>
<path style="fill:#303030; stroke:none;" d="M80 110L81 111L80 110z"/>
<path style="fill:#a1a1a1; stroke:none;" d="M81 110L82 111L81 110M110 110L111 111L110 110M131 110L132 111L131 110z"/>
<path style="fill:#303030; stroke:none;" d="M145 110L146 111L145 110z"/>
<path style="fill:#a1a1a1; stroke:none;" d="M58 111L59 112L58 111z"/>
<path style="fill:#303030; stroke:none;" d="M59 111L60 112L59 111M78 111L79 112L78 111z"/>
<path style="fill:#a1a1a1; stroke:none;" d="M79 111L80 112L79 111z"/>
<path style="fill:#646464; stroke:none;" d="M110 111L111 112L110 111z"/>
<path style="fill:#303030; stroke:none;" d="M132 111L133 112L132 111z"/>
<path style="fill:#a1a1a1; stroke:none;" d="M133 111L134 112L133 111M47 112L48 113L47 112z"/>
<path style="fill:#646464; stroke:none;" d="M57 112L58 113L57 112M77 112L78 113L77 112z"/>
<path style="fill:#a1a1a1; stroke:none;" d="M108 112L109 113L108 112z"/>
<path style="fill:#303030; stroke:none;" d="M109 112L110 113L109 112M134 112L135 113L134 112z"/>
<path style="fill:#a1a1a1; stroke:none;" d="M144 112L145 113L144 112z"/>
<path style="fill:#303030; stroke:none;" d="M47 113L48 114L47 113z"/>
<path style="fill:#646464; stroke:none;" d="M55 113L56 114L55 113z"/>
<path style="fill:#303030; stroke:none;" d="M56 113L57 114L56 113z"/>
<path style="fill:#646464; stroke:none;" d="M75 113L76 114L75 113z"/>
<path style="fill:#a1a1a1; stroke:none;" d="M106 113L107 114L106 113z"/>
<path style="fill:#303030; stroke:none;" d="M107 113L108 114L107 113z"/>
<path style="fill:#646464; stroke:none;" d="M136 113L137 114L136 113z"/>
<path style="fill:#a1a1a1; stroke:none;" d="M48 114L49 115L48 114M53 114L54 115L53 114z"/>
<path style="fill:#303030; stroke:none;" d="M54 114L55 115L54 114M73 114L74 115L73 114z"/>
<path style="fill:#a1a1a1; stroke:none;" d="M74 114L75 115L74 114z"/>
<path style="fill:#646464; stroke:none;" d="M105 114L106 115L105 114z"/>
<path style="fill:#a1a1a1; stroke:none;" d="M138 114L139 115L138 114M143 114L144 115L143 114z"/>
<path style="fill:#646464; stroke:none;" d="M48 115L49 116L48 115z"/>
<path style="fill:#303030; stroke:none;" d="M52 115L53 116L52 115z"/>
<path style="fill:#a1a1a1; stroke:none;" d="M72 115L73 116L72 115z"/>
<path style="fill:#646464; stroke:none;" d="M103 115L104 116L103 115z"/>
<path style="fill:#303030; stroke:none;" d="M139 115L140 116L139 115z"/>
<path style="fill:#a1a1a1; stroke:none;" d="M140 115L141 116L140 115z"/>
<path style="fill:#646464; stroke:none;" d="M143 115L144 116L143 115z"/>
<path style="fill:#303030; stroke:none;" d="M48 116L49 117L48 116z"/>
<path style="fill:#646464; stroke:none;" d="M50 116L51 117L50 116M70 116L71 117L70 116z"/>
<path style="fill:#a1a1a1; stroke:none;" d="M101 116L102 117L101 116z"/>
<path style="fill:#303030; stroke:none;" d="M102 116L103 117L102 116M121 116L122 117L121 116z"/>
<path style="fill:#646464; stroke:none;" d="M141 116L142 117L141 116z"/>
<path style="fill:#a1a1a1; stroke:none;" d="M142 116L143 117L142 116z"/>
<path style="fill:#303030; stroke:none;" d="M68 117L69 118L68 117M100 117L101 118L100 117z"/>
<path style="fill:#a1a1a1; stroke:none;" d="M120 117L121 118L120 117z"/>
<path style="fill:#f1f1f1; stroke:none;" d="M77 143C91.1721 150.114 110.95 147.979 124 139.25C127.359 137.003 136.868 131.195 135.539 126.213C134.454 122.147 123.832 117.171 120 118.127C114.846 119.411 109.59 123.79 105 126.421C95.8565 131.663 85.0765 136.238 77 143z"/>
<path style="fill:#303030; stroke:none;" d="M123 117L124 118L123 117M66 118L67 119L66 118z"/>
<path style="fill:#a1a1a1; stroke:none;" d="M67 118L68 119L67 118M97 118L98 119L97 118z"/>
<path style="fill:#646464; stroke:none;" d="M98 118L99 119L98 118M118 118L119 119L118 118z"/>
<path style="fill:#a1a1a1; stroke:none;" d="M124 118L125 119L124 118z"/>
<path style="fill:#303030; stroke:none;" d="M125 118L126 119L125 118z"/>
<path style="fill:#a1a1a1; stroke:none;" d="M65 119L66 120L65 119z"/>
<path style="fill:#646464; stroke:none;" d="M96 119L97 120L96 119z"/>
<path style="fill:#303030; stroke:none;" d="M116 119L117 120L116 119z"/>
<path style="fill:#646464; stroke:none;" d="M126 119L127 120L126 119M63 120L64 121L63 120z"/>
<path style="fill:#a1a1a1; stroke:none;" d="M94 120L95 121L94 120z"/>
<path style="fill:#303030; stroke:none;" d="M95 120L96 121L95 120M114 120L115 121L114 120z"/>
<path style="fill:#a1a1a1; stroke:none;" d="M115 120L116 121L115 120z"/>
<path style="fill:#646464; stroke:none;" d="M128 120L129 121L128 120z"/>
<path style="fill:#303030; stroke:none;" d="M61 121L62 122L61 121z"/>
<path style="fill:#a1a1a1; stroke:none;" d="M62 121L63 122L62 121M92 121L93 122L92 121z"/>
<path style="fill:#303030; stroke:none;" d="M93 121L94 122L93 121M112 121L113 122L112 121z"/>
<path style="fill:#a1a1a1; stroke:none;" d="M113 121L114 122L113 121M129 121L130 122L129 121z"/>
<path style="fill:#303030; stroke:none;" d="M130 121L131 122L130 121M59 122L60 123L59 122z"/>
<path style="fill:#a1a1a1; stroke:none;" d="M60 122L61 123L60 122z"/>
<path style="fill:#303030; stroke:none;" d="M91 122L92 123L91 122z"/>
<path style="fill:#646464; stroke:none;" d="M111 122L112 123L111 122z"/>
<path style="fill:#a1a1a1; stroke:none;" d="M131 122L132 123L131 122z"/>
<path style="fill:#303030; stroke:none;" d="M57 123L58 124L57 123z"/>
<path style="fill:#646464; stroke:none;" d="M58 123L59 124L58 123M89 123L90 124L89 123M109 123L110 124L109 123z"/>
<path style="fill:#a1a1a1; stroke:none;" d="M110 123L111 124L110 123z"/>
<path style="fill:#646464; stroke:none;" d="M133 123L134 124L133 123M56 124L57 125L56 124z"/>
<path style="fill:#a1a1a1; stroke:none;" d="M87 124L88 125L87 124z"/>
<path style="fill:#303030; stroke:none;" d="M107 124L108 125L107 124z"/>
<path style="fill:#a1a1a1; stroke:none;" d="M108 124L109 125L108 124z"/>
<path style="fill:#303030; stroke:none;" d="M135 124L136 125L135 124M54.3333 125.667L54.6667 126.333L54.3333 125.667z"/>
<path style="fill:#a1a1a1; stroke:none;" d="M55 125L56 126L55 125M85 125L86 126L85 125z"/>
<path style="fill:#303030; stroke:none;" d="M86 125L87 126L86 125M105 125L106 126L105 125z"/>
<path style="fill:#a1a1a1; stroke:none;" d="M106 125L107 126L106 125M136 125L137 126L136 125z"/>
<path style="fill:#303030; stroke:none;" d="M137 125L138 126L137 125M84 126L85 127L84 126z"/>
<path style="fill:#646464; stroke:none;" d="M104 126L105 127L104 126M137 126L138 127L137 126M55 127L56 128L55 127M82 127L83 128L82 127M102 127L103 128L102 127z"/>
<path style="fill:#a1a1a1; stroke:none;" d="M103 127L104 128L103 127M136 127L137 128L136 127M56 128L57 129L56 128M80 128L81 129L80 128z"/>
<path style="fill:#303030; stroke:none;" d="M100 128L101 129L100 128z"/>
<path style="fill:#a1a1a1; stroke:none;" d="M101 128L102 129L101 128M57 129L58 130L57 129M78 129L79 130L78 129z"/>
<path style="fill:#303030; stroke:none;" d="M79 129L80 130L79 129z"/>
<path style="fill:#a1a1a1; stroke:none;" d="M99 129L100 130L99 129z"/>
<path style="fill:#303030; stroke:none;" d="M57 130L58 131L57 130z"/>
<path style="fill:#646464; stroke:none;" d="M77 130L78 131L77 130M97 130L98 131L97 130z"/>
<path style="fill:#303030; stroke:none;" d="M134 130L135 131L134 130M58 131L59 132L58 131z"/>
<path style="fill:#646464; stroke:none;" d="M75 131L76 132L75 131z"/>
<path style="fill:#303030; stroke:none;" d="M95 131L96 132L95 131z"/>
<path style="fill:#a1a1a1; stroke:none;" d="M96 131L97 132L96 131z"/>
<path style="fill:#303030; stroke:none;" d="M133 131L134 132L133 131M59 132L60 133L59 132z"/>
<path style="fill:#a1a1a1; stroke:none;" d="M73 132L74 133L73 132z"/>
<path style="fill:#303030; stroke:none;" d="M93 132L94 133L93 132z"/>
<path style="fill:#a1a1a1; stroke:none;" d="M94 132L95 133L94 132z"/>
<path style="fill:#646464; stroke:none;" d="M132 132L133 133L132 132z"/>
<path style="fill:#303030; stroke:none;" d="M60 133L61 134L60 133z"/>
<path style="fill:#a1a1a1; stroke:none;" d="M71 133L72 134L71 133z"/>
<path style="fill:#303030; stroke:none;" d="M72 133L73 134L72 133z"/>
<path style="fill:#646464; stroke:none;" d="M92 133L93 134L92 133z"/>
<path style="fill:#303030; stroke:none;" d="M131 133L132 134L131 133M61 134L62 135L61 134z"/>
<path style="fill:#a1a1a1; stroke:none;" d="M62 134L63 135L62 134M69 134L70 135L69 134z"/>
<path style="fill:#646464; stroke:none;" d="M70 134L71 135L70 134M90 134L91 135L90 134M130 134L131 135L130 134z"/>
<path style="fill:#a1a1a1; stroke:none;" d="M63 135L64 136L63 135z"/>
<path style="fill:#646464; stroke:none;" d="M68 135L69 136L68 135z"/>
<path style="fill:#303030; stroke:none;" d="M88 135L89 136L88 135z"/>
<path style="fill:#a1a1a1; stroke:none;" d="M89 135L90 136L89 135z"/>
<path style="fill:#303030; stroke:none;" d="M129 135L130 136L129 135z"/>
<path style="fill:#646464; stroke:none;" d="M64 136L65 137L64 136z"/>
<path style="fill:#a1a1a1; stroke:none;" d="M66 136L67 137L66 136z"/>
<path style="fill:#303030; stroke:none;" d="M67 136L68 137L67 136M86 136L87 137L86 136z"/>
<path style="fill:#a1a1a1; stroke:none;" d="M87 136L88 137L87 136M127 136L128 137L127 136z"/>
<path style="fill:#303030; stroke:none;" d="M128 136L129 137L128 136z"/>
<path style="fill:#646464; stroke:none;" d="M85 137L86 138L85 137z"/>
<path style="fill:#a1a1a1; stroke:none;" d="M126 137L127 138L126 137z"/>
<path style="fill:#646464; stroke:none;" d="M83 138L84 139L83 138M125 138L126 139L125 138z"/>
<path style="fill:#303030; stroke:none;" d="M81 139L82 140L81 139z"/>
<path style="fill:#a1a1a1; stroke:none;" d="M82 139L83 140L82 139M123 139L124 140L123 139M80 140L81 141L80 140z"/>
<path style="fill:#303030; stroke:none;" d="M122 140L123 141L122 140z"/>
<path style="fill:#646464; stroke:none;" d="M78 141L79 142L78 141M120 141L121 142L120 141z"/>
<path style="fill:#303030; stroke:none;" d="M76 142L77 143L76 142z"/>
<path style="fill:#646464; stroke:none;" d="M118 142L119 143L118 142M76 143L77 144L76 143z"/>
<path style="fill:#a1a1a1; stroke:none;" d="M77 143L78 144L77 143M115 143L116 144L115 143z"/>
<path style="fill:#646464; stroke:none;" d="M116 143L117 144L116 143z"/>
<path style="fill:#303030; stroke:none;" d="M78 144L79 145L78 144z"/>
<path style="fill:#a1a1a1; stroke:none;" d="M79 144L80 145L79 144M113 144L114 145L113 144z"/>
<path style="fill:#303030; stroke:none;" d="M81 145L82 146L81 145z"/>
<path style="fill:#646464; stroke:none;" d="M82 145L83 146L82 145z"/>
<path style="fill:#a1a1a1; stroke:none;" d="M83 145L84 146L83 145M109 145L110 146L109 145z"/>
<path style="fill:#646464; stroke:none;" d="M110 145L111 146L110 145z"/>
<path style="fill:#303030; stroke:none;" d="M111 145L112 146L111 145M85 146L86 147L85 146z"/>
<path style="fill:#646464; stroke:none;" d="M86 146L87 147L86 146z"/>
<path style="fill:#a1a1a1; stroke:none;" d="M87 146L88 147L87 146M104.667 146.333L105.333 146.667L104.667 146.333z"/>
<path style="fill:#646464; stroke:none;" d="M106 146L107 147L106 146z"/>
<path style="fill:#303030; stroke:none;" d="M107 146L108 147L107 146M90 147L90 148L102 148L90 147z"/>
</svg>
